<svg xmlns="http://www.w3.org/2000/svg" width="142" height="124.25" viewBox="0 0 142 124.25">
  <path id="Icon_awesome-headphones-alt" data-name="Icon awesome-headphones-alt" d="M44.375,73.25H39.938a17.765,17.765,0,0,0-17.75,17.783v17.683A17.766,17.766,0,0,0,39.938,126.5h4.438a8.885,8.885,0,0,0,8.875-8.892V82.142A8.883,8.883,0,0,0,44.375,73.25Zm57.688,0H97.625a8.883,8.883,0,0,0-8.875,8.892v35.467a8.885,8.885,0,0,0,8.875,8.892h4.438a17.766,17.766,0,0,0,17.75-17.783V91.033a17.766,17.766,0,0,0-17.75-17.783ZM71,2.25c-39.685,0-69.733,33.04-71,71v31.063a4.436,4.436,0,0,0,4.438,4.438H8.875a4.436,4.436,0,0,0,4.438-4.437V73.25a57.688,57.688,0,0,1,115.375,0v31.063a4.436,4.436,0,0,0,4.438,4.438h4.438A4.436,4.436,0,0,0,142,104.313V73.25C140.733,35.29,110.685,2.25,71,2.25Z" transform="translate(0 -2.25)"/>
</svg>
