<svg xmlns="http://www.w3.org/2000/svg" width="61.188" height="58.969" viewBox="0 0 61.188 58.969">
  <path id="Icon_weather-train" data-name="Icon weather-train" d="M5.1,31.531v-.91a.972.972,0,0,1,1-1H27.658a.972.972,0,0,1,1,1v.91a.972.972,0,0,1-1,1H26.406V37.22h6.031a2.938,2.938,0,0,1,1-2.02,3.085,3.085,0,0,1,2.133-.825,3.016,3.016,0,0,1,2.105.825,3.06,3.06,0,0,1,1,2.02h3.755V27.577a1.478,1.478,0,0,1-1-.455A1.461,1.461,0,0,1,41,26.069v-.882a1.486,1.486,0,0,1,.455-1.081,1.5,1.5,0,0,1,1.109-.455h5.661a1.4,1.4,0,0,1,1.081.455,1.527,1.527,0,0,1,.427,1.081v.882a1.561,1.561,0,0,1-.4,1.053,1.257,1.257,0,0,1-.967.455V37.22H52.8a2.915,2.915,0,0,1,2.873,2.873v8.335L66.288,62.281H52.8V53.634h-2.02a6.279,6.279,0,0,1-5.775,8.648,6.313,6.313,0,0,1-6.287-6.287,6.02,6.02,0,0,1,.455-2.361H36.334a6.258,6.258,0,0,1,.484,2.361,6.1,6.1,0,0,1-1.849,4.438,6.216,6.216,0,0,1-8.847,0,6.329,6.329,0,0,1-1.365-6.8H21.371a6.211,6.211,0,0,1,.512,2.361,6.1,6.1,0,0,1-1.849,4.438A5.95,5.95,0,0,1,15.6,62.281a6.1,6.1,0,0,1-4.438-1.849A5.95,5.95,0,0,1,9.31,55.995a6.29,6.29,0,0,1,.484-2.389,2.852,2.852,0,0,1-2.418-2.845V48.314H7.319V32.526H6.1a.972.972,0,0,1-1-1Zm5.832,11.208A2.137,2.137,0,0,0,13.093,44.9h4.1a1.976,1.976,0,0,0,1.508-.626,2.2,2.2,0,0,0,.626-1.536V36.2a2.137,2.137,0,0,0-2.133-2.133H13.122A2.186,2.186,0,0,0,10.96,36.2v6.543ZM37.9,10.907a3.855,3.855,0,0,0,1.337,2.958,3.6,3.6,0,0,0,.74,1.934,2.686,2.686,0,0,0,1.593,1.252,3.049,3.049,0,0,0,.882,1.621,3.5,3.5,0,0,0,1.678.853,1.5,1.5,0,0,0-.455,1.109,1.75,1.75,0,0,0,1.792,1.792,1.761,1.761,0,0,0,1.309-.54,1.7,1.7,0,0,0,.54-1.28.98.98,0,0,0-.028-.256,1.178,1.178,0,0,1-.028-.284h.085a2.109,2.109,0,0,0,1.536-.654,2.172,2.172,0,0,0,.654-1.565,2.558,2.558,0,0,0-.341-1.081,2.733,2.733,0,0,0,1.166-1.337h1.28a4.135,4.135,0,0,0,2.845-1.28,3.887,3.887,0,0,0,1.195-2.873,3.847,3.847,0,0,0-.939-2.56,4.6,4.6,0,0,0-2.361-1.479,4.673,4.673,0,0,0-1.764-2.816,5.051,5.051,0,0,0-3.186-1.109,4.763,4.763,0,0,0-3.072,1.081,5.115,5.115,0,0,0-1.764,2.759h-.313a4.637,4.637,0,0,0-3.072,1.109A3.3,3.3,0,0,0,37.9,10.907Z" transform="translate(-5.1 -3.312)"/>
</svg>
